<?xml version="1.0" encoding="utf-8"?>
<!-- Generator: Adobe Illustrator 21.0.0, SVG Export Plug-In . SVG Version: 6.00 Build 0)  -->
<svg version="1.1" xmlns="http://www.w3.org/2000/svg" xmlns:xlink="http://www.w3.org/1999/xlink" x="0px" y="0px"
	 viewBox="0 0 270.2 512" style="enable-background:new 0 0 270.2 512;" xml:space="preserve">
<style type="text/css">
	.st0{fill:#ffffff;}
</style>
<g id="圖層_1">
</g>
<g id="圖層_2">
</g>
<g id="圖層_3">
	<path class="st0" d="M257.1,38.6l-52.7-34c-10-6.4-22.9-6-32.5,1L11.6,124C3,130.3-1.3,140.9,0.4,151.5l37.9,239.7
		c1.2,7.4,5.2,14,11.2,18.5l130.4,96.7c10.3,7.6,24.4,7.5,34.6-0.4l38.3-29.7c13-10.1,14.9-29.1,4-41.5L148.3,311.4
		c-8.2-9.4-9.4-23-3-33.6L266.1,77.4C274,64.2,270.1,47,257.1,38.6z"/>
</g>
</svg>
